<svg xmlns="http://www.w3.org/2000/svg" viewBox="0 0 256 256" width="512" height="512">
  <defs>
    <linearGradient id="g" x1="0" y1="0" x2="1" y2="1">
      <stop offset="0" stop-color="#b5e5ff"/>
      <stop offset="1" stop-color="#6ac8ff"/>
    </linearGradient>
  </defs>
  <rect width="256" height="256" fill="none"/>
  <g transform="translate(0,6)">
    <path d="M48 110c0-46 34-78 80-78s80 32 80 78c0 20-6 26-26 26H74c-20 0-26-6-26-26z" fill="url(#g)" opacity="0.5"/>
    <circle cx="96" cy="108" r="8" fill="#fff" opacity="0.9"/>
    <circle cx="160" cy="108" r="8" fill="#fff" opacity="0.9"/>
    <path d="M76 146c10 18 14 24 28 24M112 146c8 18 10 24 24 24M148 146c10 18 14 24 28 24" fill="none" stroke="#bde8ff" stroke-width="6" stroke-linecap="round"/>
  </g>
  <text x="128" y="244" text-anchor="middle" font-family="'Noto Sans SC', Arial, sans-serif" font-size="14" fill="#a8c6e8">MoRi · Placeholder</text>
</svg>
